<svg width="24" height="24" viewBox="0 0 24 24" fill="none" xmlns="http://www.w3.org/2000/svg">
<path d="M12.408 3.50094C12.4716 3.43563 12.5477 3.38371 12.6317 3.34827C12.7156 3.31282 12.8059 3.29456 12.897 3.29456C12.9882 3.29456 13.0784 3.31282 13.1624 3.34827C13.2464 3.38371 13.3225 3.43563 13.386 3.50094C13.5164 3.63481 13.5894 3.81431 13.5894 4.00119C13.5894 4.18807 13.5164 4.36757 13.386 4.50144L6.07655 11.9984L13.386 19.4969C13.4519 19.5643 13.5037 19.644 13.5388 19.7314C13.5738 19.8188 13.5912 19.9123 13.5901 20.0064C13.589 20.1006 13.5693 20.1936 13.5323 20.2802C13.4952 20.3667 13.4414 20.4452 13.374 20.5109C13.3099 20.5737 13.234 20.6231 13.1507 20.6564C13.0673 20.6898 12.9783 20.7064 12.8886 20.7053C12.7988 20.7041 12.7102 20.6854 12.6278 20.6499C12.5453 20.6145 12.4706 20.5632 12.408 20.4989L4.63505 12.5219C4.49852 12.3819 4.42212 12.194 4.42212 11.9984C4.42212 11.8029 4.49852 11.615 4.63505 11.4749L12.408 3.50094ZM18.408 3.50094C18.4716 3.43563 18.5477 3.38371 18.6317 3.34827C18.7156 3.31282 18.8059 3.29456 18.897 3.29456C18.9882 3.29456 19.0784 3.31282 19.1624 3.34827C19.2464 3.38371 19.3225 3.43563 19.386 3.50094C19.5164 3.63481 19.5894 3.81431 19.5894 4.00119C19.5894 4.18807 19.5164 4.36757 19.386 4.50144L12.0765 11.9984L19.386 19.4969C19.4519 19.5643 19.5037 19.644 19.5388 19.7314C19.5738 19.8188 19.5912 19.9123 19.5901 20.0064C19.589 20.1006 19.5693 20.1936 19.5323 20.2802C19.4952 20.3667 19.4414 20.4452 19.374 20.5109C19.3099 20.5737 19.234 20.6231 19.1507 20.6564C19.0673 20.6898 18.9783 20.7064 18.8886 20.7053C18.7988 20.7041 18.7102 20.6854 18.6278 20.6499C18.5453 20.6145 18.4706 20.5632 18.408 20.4989L10.635 12.5219C10.4985 12.3819 10.4221 12.194 10.4221 11.9984C10.4221 11.8029 10.4985 11.615 10.635 11.4749L18.408 3.50094Z" fill="#484848"/>
</svg>
