<svg width="24" height="24" viewBox="0 0 24 24" fill="none" xmlns="http://www.w3.org/2000/svg">
<path d="M12.4078 3.50082C12.4714 3.4355 12.5474 3.38359 12.6314 3.34814C12.7154 3.3127 12.8056 3.29443 12.8968 3.29443C12.988 3.29443 13.0782 3.3127 13.1622 3.34814C13.2462 3.38359 13.3222 3.4355 13.3858 3.50082C13.5162 3.63469 13.5892 3.81419 13.5892 4.00107C13.5892 4.18795 13.5162 4.36745 13.3858 4.50132L6.0763 11.9983L13.3858 19.4968C13.4516 19.5642 13.5035 19.6438 13.5385 19.7313C13.5735 19.8187 13.591 19.9121 13.5899 20.0063C13.5887 20.1005 13.5691 20.1935 13.532 20.2801C13.4949 20.3666 13.4412 20.445 13.3738 20.5108C13.3096 20.5735 13.2337 20.623 13.1504 20.6563C13.0671 20.6897 12.978 20.7063 12.8883 20.7051C12.7986 20.704 12.71 20.6852 12.6275 20.6498C12.5451 20.6144 12.4704 20.5631 12.4078 20.4988L4.6348 12.5218C4.49828 12.3818 4.42188 12.1939 4.42188 11.9983C4.42188 11.8027 4.49828 11.6149 4.6348 11.4748L12.4078 3.50082ZM18.4078 3.50082C18.4714 3.4355 18.5474 3.38359 18.6314 3.34814C18.7154 3.3127 18.8056 3.29443 18.8968 3.29443C18.988 3.29443 19.0782 3.3127 19.1622 3.34814C19.2462 3.38359 19.3222 3.4355 19.3858 3.50082C19.5162 3.63469 19.5892 3.81419 19.5892 4.00107C19.5892 4.18795 19.5162 4.36745 19.3858 4.50132L12.0763 11.9983L19.3858 19.4968C19.4516 19.5642 19.5035 19.6438 19.5385 19.7313C19.5735 19.8187 19.591 19.9121 19.5899 20.0063C19.5887 20.1005 19.5691 20.1935 19.532 20.2801C19.4949 20.3666 19.4412 20.445 19.3738 20.5108C19.3096 20.5735 19.2337 20.623 19.1504 20.6563C19.0671 20.6897 18.978 20.7063 18.8883 20.7051C18.7986 20.704 18.71 20.6852 18.6275 20.6498C18.5451 20.6144 18.4704 20.5631 18.4078 20.4988L10.6348 12.5218C10.4983 12.3818 10.4219 12.1939 10.4219 11.9983C10.4219 11.8027 10.4983 11.6149 10.6348 11.4748L18.4078 3.50082Z" fill="#484848"/>
</svg>
