<svg width="23" height="19" viewBox="0 0 23 19" fill="none" xmlns="http://www.w3.org/2000/svg">
<path d="M1.30947 18.3752H21.1845C21.9082 18.3752 22.497 17.7864 22.497 17.0627C22.497 16.3389 21.9082 15.7502 21.1845 15.7502H19.8622C19.944 15.7355 20.1543 12.5934 20.1783 12.4689C20.2455 11.8329 19.6961 11.2367 19.0571 11.2502H17.4502C17.4708 11.1294 17.4963 10.9895 17.5297 10.8249C18.993 10.6359 20.1412 9.98416 20.9418 8.87491C21.0382 8.74403 21.03 8.57041 20.9463 8.43541C21.1023 8.45903 21.2602 8.38253 21.3363 8.24041C21.8238 7.31978 22.1193 6.17116 22.2146 4.82641C22.2562 4.56241 21.8936 4.37978 21.7342 4.23428C21.9513 4.15066 22.26 4.06516 22.248 3.77341C22.2405 1.88341 21.8947 0.355657 21.8801 0.291532C21.8343 0.0680324 21.5707 -0.0647177 21.3637 0.0320323C19.6852 0.770782 18.339 1.62353 17.3617 2.56778C17.3256 2.60279 17.2969 2.64469 17.2772 2.691C17.2576 2.73732 17.2474 2.7871 17.2473 2.83741V3.59491L16.9822 3.86003C16.8067 4.00103 16.8903 4.45178 16.8723 4.64378L16.3968 4.40566C16.2157 4.31116 15.972 4.39441 15.8891 4.58228C14.3872 7.79528 16.6271 10.6179 16.7231 10.7364C16.7366 10.7533 16.7568 10.7615 16.7726 10.7758C16.7366 10.9633 16.7085 11.1234 16.6886 11.2502H16.1872C15.5482 11.2367 14.9988 11.8329 15.066 12.4689C15.093 12.6028 15.2955 15.7232 15.3817 15.7502H13.4557C13.587 12.9493 11.5271 10.5429 8.76935 10.262V9.96953C10.9687 9.41828 12.6048 7.43078 12.6048 5.06303C12.3266 -1.65322 2.75622 -1.65134 2.4791 5.06303C2.4791 7.43078 4.11522 9.41828 6.3146 9.96916V10.262C3.55685 10.5429 1.49697 12.9497 1.62822 15.7502C-0.33303 15.5289 -0.62253 18.2323 1.30947 18.3752ZM16.4186 5.25541L17.0793 5.58578C17.3175 5.71328 17.6302 5.52053 17.622 5.25016V4.28078L17.8871 4.01528C17.9574 3.94497 17.997 3.84961 17.997 3.75016V2.99866C18.8152 2.23853 19.9027 1.53878 21.237 0.913282C21.3318 1.45178 21.4713 2.41703 21.4942 3.52253L20.8578 3.77753C20.7969 3.80172 20.7434 3.8415 20.7026 3.89289C20.6619 3.94428 20.6354 4.00548 20.6257 4.07034C20.6161 4.13521 20.6236 4.20147 20.6477 4.26249C20.6717 4.32352 20.7113 4.37715 20.7626 4.41803L21.4507 4.96853C21.3607 5.99866 21.1432 6.89041 20.8027 7.62728L20.3377 7.51141C20.0403 7.42703 19.7628 7.76941 19.9117 8.04316L20.1971 8.61391C19.5847 9.37328 18.7507 9.84991 17.7108 10.0404C18.0138 8.86103 18.5737 7.23691 19.569 5.84341C19.5994 5.80348 19.6214 5.75785 19.6339 5.70923C19.6463 5.66061 19.6489 5.60999 19.6414 5.56036C19.6339 5.51073 19.6166 5.46311 19.5903 5.42032C19.5641 5.37753 19.5296 5.34044 19.4888 5.31124C19.4479 5.28204 19.4017 5.26134 19.3527 5.25035C19.3037 5.23936 19.2531 5.23831 19.2037 5.24727C19.1543 5.25623 19.1072 5.275 19.0652 5.30249C19.0232 5.32998 18.9872 5.36561 18.9592 5.40728C17.9043 6.88403 17.3137 8.56853 16.9927 9.80603C16.5003 8.99941 15.6791 7.22866 16.4186 5.25541ZM15.9112 12.1217C15.9462 12.0832 15.9888 12.0525 16.0363 12.0316C16.0839 12.0107 16.1353 12 16.1872 12.0002H19.0567C19.2705 11.9957 19.4535 12.194 19.4306 12.4063L19.1801 15.4063C19.173 15.5002 19.1305 15.5879 19.0613 15.6517C18.992 15.7155 18.9011 15.7507 18.807 15.7502H16.437C16.3428 15.7507 16.2518 15.7155 16.1825 15.6517C16.1132 15.5879 16.0707 15.5002 16.0635 15.4063L15.8133 12.4063C15.8088 12.3546 15.8151 12.3025 15.8319 12.2534C15.8487 12.2043 15.8756 12.1593 15.9108 12.1213L15.9112 12.1217ZM3.2291 5.06266C3.2291 2.68478 5.1641 0.750157 7.54197 0.750157C13.2637 0.986782 13.2618 9.13966 7.54197 9.37553C5.16372 9.37553 3.22947 7.44091 3.22947 5.06303L3.2291 5.06266ZM7.64472 11.0807H7.43997C7.34051 11.0807 7.24513 11.0411 7.17481 10.9708C7.10448 10.9005 7.06497 10.8051 7.06497 10.7057V10.1259H8.01972C7.99797 10.4687 8.14985 11.06 7.64472 11.0807ZM7.43997 11.8307C7.66047 11.8382 7.91097 11.8277 8.1056 11.7294L8.76297 13.4777L7.49847 14.8262L6.2426 13.4784L6.91235 11.6934C7.0706 11.7782 7.24835 11.8307 7.43997 11.8307ZM2.37822 15.4764C2.37449 14.3717 2.77911 13.3046 3.51435 12.4802C4.24959 11.6557 5.26358 11.132 6.36147 11.0098C6.3641 11.018 5.45847 13.4323 5.45847 13.4323C5.4086 13.5654 5.43822 13.7158 5.53535 13.8197L7.22285 15.6309C7.3496 15.7907 7.63235 15.7884 7.77035 15.632L9.4691 13.8208C9.51708 13.7697 9.54979 13.7062 9.56351 13.6374C9.57724 13.5687 9.57142 13.4975 9.54672 13.4319L8.6831 11.1358C8.6996 11.0953 8.7101 11.0522 8.7221 11.0098C11.0853 11.2659 12.8332 13.3487 12.7057 15.7502H2.37822V15.4764ZM1.30947 16.5002C6.35735 16.559 16.1872 16.4822 21.1845 16.5002C21.9157 16.511 21.9303 17.6117 21.1845 17.6252H1.30947C0.57597 17.6139 0.565845 16.514 1.30947 16.5002Z" fill="#735F39"/>
</svg>
