<svg width="24" height="24" viewBox="0 0 24 24" fill="none" xmlns="http://www.w3.org/2000/svg">
<path fill-rule="evenodd" clip-rule="evenodd" d="M4.48156 1.6001H4.40156C4.03516 1.6001 3.71996 1.6001 3.44156 1.6657C3.01058 1.76868 2.61652 1.98897 2.30305 2.30216C1.98958 2.61535 1.76893 3.00921 1.66556 3.4401C1.60156 3.7185 1.60156 4.0321 1.60156 4.4001V8.4001C1.60156 8.7665 1.60156 9.0817 1.66716 9.3601C1.77015 9.79108 1.99044 10.1851 2.30363 10.4986C2.61681 10.8121 3.01067 11.0327 3.44156 11.1361C3.71996 11.2001 4.03356 11.2001 4.40156 11.2001H8.40156C8.76796 11.2001 9.08316 11.2001 9.36156 11.1345C9.79254 11.0315 10.1866 10.8112 10.5001 10.498C10.8135 10.1848 11.0342 9.79099 11.1376 9.3601C11.2016 9.0817 11.2016 8.7681 11.2016 8.4001V4.4001C11.2016 4.0337 11.2016 3.7185 11.136 3.4401C11.033 3.00912 10.8127 2.61506 10.4995 2.30159C10.1863 1.98812 9.79245 1.76747 9.36156 1.6641C9.08316 1.6001 8.76956 1.6001 8.40156 1.6001H8.32156H4.48156ZM3.81436 3.2225C3.88316 3.2065 3.99036 3.2001 4.48156 3.2001H8.32156C8.81436 3.2001 8.91996 3.2049 8.98876 3.2225C9.13249 3.25687 9.26389 3.33038 9.36838 3.43487C9.47288 3.53937 9.54639 3.67077 9.58076 3.8145C9.59676 3.8817 9.60156 3.9873 9.60156 4.4801V8.3201C9.60156 8.8129 9.59676 8.9185 9.57916 8.9873C9.54479 9.13103 9.47128 9.26242 9.36678 9.36692C9.26229 9.47142 9.13089 9.54493 8.98716 9.5793C8.92156 9.5937 8.81596 9.6001 8.32156 9.6001H4.48156C3.98876 9.6001 3.88316 9.5953 3.81436 9.5777C3.67063 9.54333 3.53924 9.46982 3.43474 9.36532C3.33024 9.26082 3.25673 9.12943 3.22236 8.9857C3.20796 8.9201 3.20156 8.8145 3.20156 8.3201V4.4801C3.20156 3.9873 3.20636 3.8817 3.22396 3.8129C3.25833 3.66917 3.33184 3.53777 3.43634 3.43327C3.54084 3.32878 3.67223 3.25527 3.81596 3.2209M15.6816 1.6001H15.6016C15.2352 1.6001 14.92 1.6001 14.6416 1.6657C14.2106 1.76868 13.8165 1.98897 13.5031 2.30216C13.1896 2.61535 12.9689 3.00921 12.8656 3.4401C12.8016 3.7185 12.8016 4.0321 12.8016 4.4001V8.4001C12.8016 8.7665 12.8016 9.0817 12.8672 9.3601C12.9701 9.79108 13.1904 10.1851 13.5036 10.4986C13.8168 10.8121 14.2107 11.0327 14.6416 11.1361C14.92 11.2001 15.2336 11.2001 15.6016 11.2001H19.6016C19.968 11.2001 20.2832 11.2001 20.5616 11.1345C20.9925 11.0315 21.3866 10.8112 21.7001 10.498C22.0135 10.1848 22.2342 9.79099 22.3376 9.3601C22.4016 9.0817 22.4016 8.7681 22.4016 8.4001V4.4001C22.4016 4.0337 22.4016 3.7185 22.336 3.4401C22.233 3.00912 22.0127 2.61506 21.6995 2.30159C21.3863 1.98812 20.9925 1.76747 20.5616 1.6641C20.2832 1.6001 19.9696 1.6001 19.6016 1.6001H19.5216H15.6816ZM15.0144 3.2225C15.0832 3.2065 15.1904 3.2001 15.6816 3.2001H19.5216C20.0144 3.2001 20.12 3.2049 20.1888 3.2225C20.3325 3.25687 20.4639 3.33038 20.5684 3.43487C20.6729 3.53937 20.7464 3.67077 20.7808 3.8145C20.7968 3.8817 20.8016 3.9873 20.8016 4.4801V8.3201C20.8016 8.8129 20.7952 8.9185 20.7792 8.9873C20.7448 9.13103 20.6713 9.26242 20.5668 9.36692C20.4623 9.47142 20.3309 9.54493 20.1872 9.5793C20.12 9.5953 20.0144 9.6001 19.5216 9.6001H15.6816C15.1888 9.6001 15.0832 9.5953 15.0144 9.5777C14.8706 9.54333 14.7392 9.46982 14.6347 9.36532C14.5302 9.26082 14.4567 9.12943 14.4224 8.9857C14.408 8.9201 14.4016 8.8145 14.4016 8.3201V4.4801C14.4016 3.9873 14.4064 3.8817 14.424 3.8129C14.4583 3.66917 14.5318 3.53777 14.6363 3.43327C14.7408 3.32878 14.8722 3.25527 15.016 3.2209M4.40156 12.8001H8.40156C8.76796 12.8001 9.08316 12.8001 9.36156 12.8657C9.79254 12.9687 10.1866 13.189 10.5001 13.5022C10.8135 13.8153 11.0342 14.2092 11.1376 14.6401C11.2016 14.9185 11.2016 15.2321 11.2016 15.6001V19.6001C11.2016 19.9665 11.2016 20.2817 11.136 20.5601C11.033 20.9911 10.8127 21.3851 10.4995 21.6986C10.1863 22.0121 9.79245 22.2327 9.36156 22.3361C9.08316 22.4001 8.76956 22.4001 8.40156 22.4001H4.40156C4.03516 22.4001 3.71996 22.4001 3.44156 22.3345C3.01058 22.2315 2.61652 22.0112 2.30305 21.698C1.98958 21.3848 1.76893 20.991 1.66556 20.5601C1.60156 20.2817 1.60156 19.9681 1.60156 19.6001V15.6001C1.60156 15.2337 1.60156 14.9185 1.66716 14.6401C1.77015 14.2091 1.99044 13.8151 2.30363 13.5016C2.61681 13.1881 3.01067 12.9675 3.44156 12.8641C3.71996 12.8001 4.03356 12.8001 4.40156 12.8001ZM4.48156 14.4001C3.98876 14.4001 3.88316 14.4049 3.81436 14.4225C3.67063 14.4569 3.53924 14.5304 3.43474 14.6349C3.33024 14.7394 3.25673 14.8708 3.22236 15.0145C3.20796 15.0801 3.20156 15.1857 3.20156 15.6801V19.5201C3.20156 20.0129 3.20636 20.1185 3.22396 20.1873C3.25833 20.331 3.33184 20.4624 3.43634 20.5669C3.54084 20.6714 3.67223 20.7449 3.81596 20.7793C3.88316 20.7953 3.98876 20.8001 4.48156 20.8001H8.32156C8.81436 20.8001 8.91996 20.7937 8.98876 20.7777C9.13249 20.7433 9.26389 20.6698 9.36838 20.5653C9.47288 20.4608 9.54639 20.3294 9.58076 20.1857C9.59676 20.1185 9.60156 20.0129 9.60156 19.5201V15.6801C9.60156 15.1873 9.59676 15.0817 9.57916 15.0129C9.54479 14.8692 9.47128 14.7378 9.36678 14.6333C9.26229 14.5288 9.13089 14.4553 8.98716 14.4209C8.92156 14.4065 8.81596 14.4001 8.32156 14.4001H4.48156ZM15.6816 12.8001H15.6016C15.2352 12.8001 14.92 12.8001 14.6416 12.8657C14.2106 12.9687 13.8165 13.189 13.5031 13.5022C13.1896 13.8153 12.9689 14.2092 12.8656 14.6401C12.8016 14.9185 12.8016 15.2321 12.8016 15.6001V19.6001C12.8016 19.9665 12.8016 20.2817 12.8672 20.5601C12.9701 20.9911 13.1904 21.3851 13.5036 21.6986C13.8168 22.0121 14.2107 22.2327 14.6416 22.3361C14.92 22.4017 15.2352 22.4017 15.6016 22.4017H19.6016C19.968 22.4017 20.2832 22.4017 20.5616 22.3361C20.9922 22.2329 21.386 22.0124 21.6991 21.6993C22.0123 21.3861 22.2327 20.9924 22.336 20.5617C22.4016 20.2833 22.4016 19.9681 22.4016 19.6017V15.6001C22.4016 15.2337 22.4016 14.9185 22.336 14.6401C22.233 14.2091 22.0127 13.8151 21.6995 13.5016C21.3863 13.1881 20.9925 12.9675 20.5616 12.8641C20.2832 12.8001 19.9696 12.8001 19.6016 12.8001H19.5216H15.6816ZM15.0144 14.4225C15.0832 14.4065 15.1904 14.4001 15.6816 14.4001H19.5216C20.0144 14.4001 20.12 14.4049 20.1888 14.4225C20.3325 14.4569 20.4639 14.5304 20.5684 14.6349C20.6729 14.7394 20.7464 14.8708 20.7808 15.0145C20.7968 15.0817 20.8016 15.1873 20.8016 15.6801V19.5201C20.8016 20.0129 20.7952 20.1185 20.7792 20.1873C20.7448 20.331 20.6713 20.4624 20.5668 20.5669C20.4623 20.6714 20.3309 20.7449 20.1872 20.7793C20.12 20.7953 20.0144 20.8001 19.5216 20.8001H15.6816C15.1888 20.8001 15.0832 20.7937 15.0144 20.7777C14.8706 20.7433 14.7392 20.6698 14.6347 20.5653C14.5302 20.4608 14.4567 20.3294 14.4224 20.1857C14.408 20.1201 14.4016 20.0145 14.4016 19.5201V15.6801C14.4016 15.1873 14.4064 15.0817 14.424 15.0129C14.4583 14.8692 14.5318 14.7378 14.6363 14.6333C14.7408 14.5288 14.8722 14.4553 15.016 14.4209" fill="#735F39"/>
</svg>
