<svg width="24" height="24" viewBox="0 0 24 24" fill="none" xmlns="http://www.w3.org/2000/svg">
<path d="M3.12877 0C2.50996 0 1.90504 0.184541 1.39052 0.530288C0.875996 0.876034 0.474974 1.36746 0.238165 1.94241C0.0013556 2.51737 -0.0606044 3.15003 0.0601198 3.7604C0.180844 4.37077 0.47883 4.93143 0.916397 5.37148C1.35396 5.81153 1.91146 6.11121 2.51838 6.23262C3.1253 6.35403 3.75439 6.29172 4.3261 6.05356C4.89781 5.81541 5.38645 5.41211 5.73025 4.89466C6.07404 4.37722 6.25754 3.76887 6.25754 3.14654C6.25647 2.31236 5.92649 1.51265 5.33996 0.92279C4.75344 0.332932 3.95824 0.00107706 3.12877 0ZM3.12877 5.07191C2.75012 5.07191 2.37997 4.95899 2.06513 4.74743C1.75029 4.53587 1.50491 4.23516 1.36 3.88335C1.2151 3.53153 1.17719 3.1444 1.25106 2.77092C1.32493 2.39743 1.50727 2.05436 1.77502 1.7851C2.04276 1.51583 2.38389 1.33245 2.75527 1.25816C3.12665 1.18387 3.51159 1.222 3.86142 1.36773C4.21125 1.51345 4.51025 1.76023 4.72062 2.07686C4.93099 2.39349 5.04327 2.76574 5.04327 3.14654C5.04541 3.40075 4.99746 3.65287 4.90221 3.88835C4.80695 4.12383 4.66627 4.33801 4.48828 4.51852C4.31029 4.69904 4.09852 4.84232 3.86518 4.94009C3.63184 5.03787 3.38155 5.0882 3.12877 5.0882V5.07191ZM3.12877 8.8616C2.50996 8.8616 1.90504 9.04614 1.39052 9.39189C0.875996 9.73763 0.474974 10.2291 0.238165 10.804C0.0013556 11.379 -0.0606044 12.0116 0.0601198 12.622C0.180844 13.2324 0.47883 13.793 0.916397 14.2331C1.35396 14.6731 1.91146 14.9728 2.51838 15.0942C3.1253 15.2156 3.75439 15.1533 4.3261 14.9152C4.89781 14.677 5.38645 14.2737 5.73025 13.7563C6.07404 13.2388 6.25754 12.6305 6.25754 12.0081C6.25647 11.174 5.92649 10.3742 5.33996 9.78439C4.75344 9.19453 3.95824 8.86268 3.12877 8.8616ZM3.12877 13.9335C2.75012 13.9335 2.37997 13.8206 2.06513 13.609C1.75029 13.3975 1.50491 13.0968 1.36 12.7449C1.2151 12.3931 1.17719 12.006 1.25106 11.6325C1.32493 11.259 1.50727 10.916 1.77502 10.6467C2.04276 10.3774 2.38389 10.1941 2.75527 10.1198C3.12665 10.0455 3.51159 10.0836 3.86142 10.2293C4.21125 10.3751 4.51025 10.6218 4.72062 10.9385C4.93099 11.2551 5.04327 11.6273 5.04327 12.0081C5.04327 12.261 4.99375 12.5114 4.89754 12.7449C4.80132 12.9785 4.6603 13.1908 4.48253 13.3696C4.30475 13.5484 4.09369 13.6902 3.86142 13.787C3.62914 13.8837 3.38019 13.9335 3.12877 13.9335ZM3.12877 17.7069C2.50996 17.7069 1.90504 17.8915 1.39052 18.2372C0.875996 18.583 0.474974 19.0744 0.238165 19.6493C0.0013556 20.2243 -0.0606044 20.8569 0.0601198 21.4673C0.180844 22.0777 0.47883 22.6383 0.916397 23.0784C1.35396 23.5184 1.91146 23.8181 2.51838 23.9395C3.1253 24.0609 3.75439 23.9986 4.3261 23.7605C4.89781 23.5223 5.38645 23.119 5.73025 22.6016C6.07404 22.0841 6.25754 21.4758 6.25754 20.8535C6.25647 20.0193 5.92649 19.2196 5.33996 18.6297C4.75344 18.0399 3.95824 17.708 3.12877 17.7069ZM3.12877 22.7788C2.75012 22.7788 2.37997 22.6659 2.06513 22.4543C1.75029 22.2428 1.50491 21.9421 1.36 21.5903C1.2151 21.2385 1.17719 20.8513 1.25106 20.4778C1.32493 20.1044 1.50727 19.7613 1.77502 19.492C2.04276 19.2227 2.38389 19.0394 2.75527 18.9651C3.12665 18.8908 3.51159 18.9289 3.86142 19.0746C4.21125 19.2204 4.51025 19.4672 4.72062 19.7838C4.93099 20.1004 5.04327 20.4727 5.04327 20.8535C5.04541 21.1077 4.99746 21.3598 4.90221 21.5953C4.80695 21.8307 4.66627 22.0449 4.48828 22.2254C4.31029 22.406 4.09852 22.5492 3.86518 22.647C3.63184 22.7448 3.38155 22.7951 3.12877 22.7951V22.7788ZM11.1146 5.02307H22.043C22.2957 5.0349 22.548 4.99507 22.7849 4.906C23.0218 4.81693 23.2382 4.68047 23.4212 4.50486C23.6041 4.32926 23.7497 4.11816 23.8492 3.88434C23.9487 3.65052 24 3.39883 24 3.1445C24 2.89018 23.9487 2.63849 23.8492 2.40467C23.7497 2.17085 23.6041 1.95975 23.4212 1.78415C23.2382 1.60854 23.0218 1.47208 22.7849 1.38301C22.548 1.29394 22.2957 1.25411 22.043 1.26594H11.1146C10.6342 1.28844 10.181 1.49618 9.84892 1.84602C9.51688 2.19585 9.33162 2.66088 9.33162 3.1445C9.33162 3.62813 9.51688 4.09316 9.84892 4.44299C10.181 4.79283 10.6342 5.00057 11.1146 5.02307ZM11.1146 2.48711H22.043C22.1332 2.47997 22.2239 2.49167 22.3093 2.52146C22.3948 2.55126 22.4732 2.59852 22.5396 2.66026C22.606 2.722 22.659 2.7969 22.6953 2.88023C22.7315 2.96357 22.7502 3.05354 22.7502 3.1445C22.7502 3.23547 22.7315 3.32544 22.6953 3.40878C22.659 3.49211 22.606 3.56701 22.5396 3.62875C22.4732 3.69049 22.3948 3.73775 22.3093 3.76755C22.2239 3.79734 22.1332 3.80904 22.043 3.8019H11.1146C10.9501 3.78887 10.7966 3.71396 10.6846 3.59211C10.5726 3.47027 10.5104 3.31043 10.5104 3.1445C10.5104 2.97857 10.5726 2.81874 10.6846 2.69689C10.7966 2.57505 10.9501 2.50014 11.1146 2.48711ZM22.043 10.1275H11.1146C10.6187 10.1275 10.143 10.3257 9.79235 10.6784C9.44166 11.031 9.24464 11.5094 9.24464 12.0081C9.24464 12.5069 9.44166 12.9852 9.79235 13.3379C10.143 13.6906 10.6187 13.8887 11.1146 13.8887H22.043C22.539 13.8887 23.0146 13.6906 23.3653 13.3379C23.716 12.9852 23.913 12.5069 23.913 12.0081C23.913 11.5094 23.716 11.031 23.3653 10.6784C23.0146 10.3257 22.539 10.1275 22.043 10.1275ZM22.043 12.6676H11.1146C10.9407 12.6676 10.7739 12.5981 10.651 12.4744C10.528 12.3508 10.4589 12.183 10.4589 12.0081C10.4589 11.8332 10.528 11.6655 10.651 11.5419C10.7739 11.4182 10.9407 11.3487 11.1146 11.3487H22.043C22.217 11.3487 22.3837 11.4182 22.5067 11.5419C22.6297 11.6655 22.6988 11.8332 22.6988 12.0081C22.6988 12.183 22.6297 12.3508 22.5067 12.4744C22.3837 12.5981 22.217 12.6676 22.043 12.6676ZM22.043 18.9891H11.1146C10.6342 19.0116 10.181 19.2194 9.84892 19.5692C9.51688 19.9191 9.33162 20.3841 9.33162 20.8677C9.33162 21.3513 9.51688 21.8164 9.84892 22.1662C10.181 22.516 10.6342 22.7238 11.1146 22.7463H22.043C22.2957 22.7581 22.548 22.7183 22.7849 22.6292C23.0218 22.5401 23.2382 22.4037 23.4212 22.2281C23.6041 22.0525 23.7497 21.8414 23.8492 21.6075C23.9487 21.3737 24 21.122 24 20.8677C24 20.6134 23.9487 20.3617 23.8492 20.1279C23.7497 19.8941 23.6041 19.683 23.4212 19.5073C23.2382 19.3317 23.0218 19.1953 22.7849 19.1062C22.548 19.0171 22.2957 18.9773 22.043 18.9891ZM22.043 21.5251H11.1146C10.9501 21.5121 10.7966 21.4372 10.6846 21.3153C10.5726 21.1935 10.5104 21.0336 10.5104 20.8677C10.5104 20.7018 10.5726 20.5419 10.6846 20.4201C10.7966 20.2982 10.9501 20.2233 11.1146 20.2103H22.043C22.1332 20.2032 22.2239 20.2149 22.3093 20.2447C22.3948 20.2745 22.4732 20.3217 22.5396 20.3835C22.606 20.4452 22.659 20.5201 22.6953 20.6034C22.7315 20.6868 22.7502 20.7767 22.7502 20.8677C22.7502 20.9587 22.7315 21.0486 22.6953 21.132C22.659 21.2153 22.606 21.2902 22.5396 21.352C22.4732 21.4137 22.3948 21.4609 22.3093 21.4907C22.2239 21.5205 22.1332 21.5322 22.043 21.5251Z" fill="#735F39"/>
</svg>
