<svg width="23" height="23" viewBox="0 0 23 23" fill="none" xmlns="http://www.w3.org/2000/svg">
<path d="M3.65625 17.9271H3.77083L6.82292 17.6458C7.25 17.6042 7.64583 17.4167 7.94792 17.1146L19.4688 5.59375C20.0104 5.05208 20.3125 4.33333 20.3125 3.57292C20.3125 2.8125 20.0104 2.09375 19.4688 1.55208L18.7292 0.8125C17.6458 -0.270833 15.7604 -0.270833 14.6771 0.8125L13.2083 2.28125L3.16667 12.3229C2.86458 12.625 2.67708 13.0208 2.64583 13.4479L2.36458 16.5C2.33333 16.8854 2.46875 17.2604 2.73958 17.5417C2.98958 17.7917 3.3125 17.9271 3.65625 17.9271ZM16.7083 1.53125C17.0417 1.53125 17.375 1.65625 17.625 1.91667L18.3646 2.65625C18.4863 2.77588 18.5829 2.91855 18.6489 3.07594C18.7149 3.23332 18.7489 3.40226 18.7489 3.57292C18.7489 3.74357 18.7149 3.91252 18.6489 4.0699C18.5829 4.22728 18.4863 4.36995 18.3646 4.48958L17.4479 5.40625L14.875 2.83333L15.7917 1.91667C16.0417 1.66667 16.375 1.53125 16.7083 1.53125ZM4.19792 13.5937C4.19792 13.5312 4.22917 13.4792 4.27083 13.4375L13.7604 3.9375L16.3333 6.51042L6.84375 16C6.84375 16 6.73958 16.0729 6.6875 16.0729L3.94792 16.3229L4.19792 13.5833V13.5937ZM22.3958 21.25C22.3958 21.6771 22.0417 22.0312 21.6146 22.0312H0.78125C0.354167 22.0312 0 21.6771 0 21.25C0 20.8229 0.354167 20.4687 0.78125 20.4687H21.6146C22.0417 20.4687 22.3958 20.8229 22.3958 21.25Z" fill="#735F39"/>
</svg>
