<svg width="24" height="24" viewBox="0 0 24 24" fill="none" xmlns="http://www.w3.org/2000/svg">
<g filter="url(#filter0_d_527_2400)">
<path d="M21.375 2.25H19.125V1.875C19.125 1.57663 19.0065 1.29048 18.7955 1.0795C18.5845 0.868526 18.2984 0.75 18 0.75C17.7016 0.75 17.4155 0.868526 17.2045 1.0795C16.9935 1.29048 16.875 1.57663 16.875 1.875V2.25H13.125V1.875C13.125 1.57663 13.0065 1.29048 12.7955 1.0795C12.5845 0.868526 12.2984 0.75 12 0.75C11.7016 0.75 11.4155 0.868526 11.2045 1.0795C10.9935 1.29048 10.875 1.57663 10.875 1.875V2.25H7.125V1.875C7.125 1.57663 7.00647 1.29048 6.7955 1.0795C6.58452 0.868526 6.29837 0.75 6 0.75C5.70163 0.75 5.41548 0.868526 5.2045 1.0795C4.99353 1.29048 4.875 1.57663 4.875 1.875V2.25H2.625C2.12789 2.25056 1.6513 2.44828 1.29979 2.79979C0.948282 3.1513 0.750558 3.62789 0.75 4.125V21.375C0.750558 21.8721 0.948282 22.3487 1.29979 22.7002C1.6513 23.0517 2.12789 23.2494 2.625 23.25H21.375C21.8721 23.2494 22.3487 23.0517 22.7002 22.7002C23.0517 22.3487 23.2494 21.8721 23.25 21.375V4.125C23.2494 3.62789 23.0517 3.1513 22.7002 2.79979C22.3487 2.44828 21.8721 2.25056 21.375 2.25ZM17.625 1.875C17.625 1.77554 17.6645 1.68016 17.7348 1.60984C17.8052 1.53951 17.9005 1.5 18 1.5C18.0995 1.5 18.1948 1.53951 18.2652 1.60984C18.3355 1.68016 18.375 1.77554 18.375 1.875V4.125C18.375 4.22446 18.3355 4.31984 18.2652 4.39016C18.1948 4.46049 18.0995 4.5 18 4.5C17.9005 4.5 17.8052 4.46049 17.7348 4.39016C17.6645 4.31984 17.625 4.22446 17.625 4.125V1.875ZM11.625 1.875C11.625 1.77554 11.6645 1.68016 11.7348 1.60984C11.8052 1.53951 11.9005 1.5 12 1.5C12.0995 1.5 12.1948 1.53951 12.2652 1.60984C12.3355 1.68016 12.375 1.77554 12.375 1.875V4.125C12.375 4.22446 12.3355 4.31984 12.2652 4.39016C12.1948 4.46049 12.0995 4.5 12 4.5C11.9005 4.5 11.8052 4.46049 11.7348 4.39016C11.6645 4.31984 11.625 4.22446 11.625 4.125V1.875ZM5.625 1.875C5.625 1.77554 5.66451 1.68016 5.73484 1.60984C5.80516 1.53951 5.90054 1.5 6 1.5C6.09946 1.5 6.19484 1.53951 6.26517 1.60984C6.33549 1.68016 6.375 1.77554 6.375 1.875V4.125C6.375 4.22446 6.33549 4.31984 6.26517 4.39016C6.19484 4.46049 6.09946 4.5 6 4.5C5.90054 4.5 5.80516 4.46049 5.73484 4.39016C5.66451 4.31984 5.625 4.22446 5.625 4.125V1.875ZM2.625 3H4.875V4.125C4.875 4.42337 4.99353 4.70952 5.2045 4.9205C5.41548 5.13147 5.70163 5.25 6 5.25C6.29837 5.25 6.58452 5.13147 6.7955 4.9205C7.00647 4.70952 7.125 4.42337 7.125 4.125V3H10.875V4.125C10.875 4.42337 10.9935 4.70952 11.2045 4.9205C11.4155 5.13147 11.7016 5.25 12 5.25C12.2984 5.25 12.5845 5.13147 12.7955 4.9205C13.0065 4.70952 13.125 4.42337 13.125 4.125V3H16.875V4.125C16.875 4.42337 16.9935 4.70952 17.2045 4.9205C17.4155 5.13147 17.7016 5.25 18 5.25C18.2984 5.25 18.5845 5.13147 18.7955 4.9205C19.0065 4.70952 19.125 4.42337 19.125 4.125V3H21.375C21.6733 3.00035 21.9592 3.11899 22.1701 3.32989C22.381 3.54079 22.4997 3.82674 22.5 4.125V6.75H1.5V4.125C1.50035 3.82674 1.61899 3.54079 1.82989 3.32989C2.04079 3.11899 2.32674 3.00035 2.625 3ZM21.375 22.5H2.625C2.32674 22.4997 2.04079 22.381 1.82989 22.1701C1.61899 21.9592 1.50035 21.6733 1.5 21.375V7.5H22.5V21.375C22.4997 21.6733 22.381 21.9592 22.1701 22.1701C21.9592 22.381 21.6733 22.4997 21.375 22.5Z" fill="#735F39"/>
<path d="M20.625 10.125H19.125C19.0255 10.125 18.9302 10.1646 18.8598 10.2349C18.7895 10.3052 18.75 10.4006 18.75 10.5V12C18.75 12.0995 18.7895 12.1949 18.8598 12.2652C18.9302 12.3355 19.0255 12.375 19.125 12.375H20.625C20.7245 12.375 20.8198 12.3355 20.8902 12.2652C20.9605 12.1949 21 12.0995 21 12V10.5C21 10.4006 20.9605 10.3052 20.8902 10.2349C20.8198 10.1646 20.7245 10.125 20.625 10.125ZM20.25 11.625H19.5V10.875H20.25V11.625ZM13.125 17.625H11.625C11.5255 17.625 11.4302 17.6646 11.3598 17.7349C11.2895 17.8052 11.25 17.9006 11.25 18V19.5C11.25 19.5995 11.2895 19.6949 11.3598 19.7652C11.4302 19.8355 11.5255 19.875 11.625 19.875H13.125C13.2245 19.875 13.3198 19.8355 13.3902 19.7652C13.4605 19.6949 13.5 19.5995 13.5 19.5V18C13.5 17.9006 13.4605 17.8052 13.3902 17.7349C13.3198 17.6646 13.2245 17.625 13.125 17.625ZM12.75 19.125H12V18.375H12.75V19.125ZM9.375 10.125H7.875C7.77554 10.125 7.68016 10.1646 7.60983 10.2349C7.53951 10.3052 7.5 10.4006 7.5 10.5V12C7.5 12.0995 7.53951 12.1949 7.60983 12.2652C7.68016 12.3355 7.77554 12.375 7.875 12.375H9.375C9.47446 12.375 9.56984 12.3355 9.64017 12.2652C9.71049 12.1949 9.75 12.0995 9.75 12V10.5C9.75 10.4006 9.71049 10.3052 9.64017 10.2349C9.56984 10.1646 9.47446 10.125 9.375 10.125ZM9 11.625H8.25V10.875H9V11.625ZM5.625 13.875H4.125C4.02554 13.875 3.93016 13.9146 3.85984 13.9849C3.78951 14.0552 3.75 14.1506 3.75 14.25V15.75C3.75 15.8495 3.78951 15.9449 3.85984 16.0152C3.93016 16.0855 4.02554 16.125 4.125 16.125H5.625C5.72446 16.125 5.81984 16.0855 5.89016 16.0152C5.96049 15.9449 6 15.8495 6 15.75V14.25C6 14.1506 5.96049 14.0552 5.89016 13.9849C5.81984 13.9146 5.72446 13.875 5.625 13.875ZM5.25 15.375H4.5V14.625H5.25V15.375ZM9.375 13.875H7.875C7.77554 13.875 7.68016 13.9146 7.60983 13.9849C7.53951 14.0552 7.5 14.1506 7.5 14.25V15.75C7.5 15.8495 7.53951 15.9449 7.60983 16.0152C7.68016 16.0855 7.77554 16.125 7.875 16.125H9.375C9.47446 16.125 9.56984 16.0855 9.64017 16.0152C9.71049 15.9449 9.75 15.8495 9.75 15.75V14.25C9.75 14.1506 9.71049 14.0552 9.64017 13.9849C9.56984 13.9146 9.47446 13.875 9.375 13.875ZM9 15.375H8.25V14.625H9V15.375ZM5.625 17.625H4.125C4.02554 17.625 3.93016 17.6646 3.85984 17.7349C3.78951 17.8052 3.75 17.9006 3.75 18V19.5C3.75 19.5995 3.78951 19.6949 3.85984 19.7652C3.93016 19.8355 4.02554 19.875 4.125 19.875H5.625C5.72446 19.875 5.81984 19.8355 5.89016 19.7652C5.96049 19.6949 6 19.5995 6 19.5V18C6 17.9006 5.96049 17.8052 5.89016 17.7349C5.81984 17.6646 5.72446 17.625 5.625 17.625ZM5.25 19.125H4.5V18.375H5.25V19.125ZM9.375 17.625H7.875C7.77554 17.625 7.68016 17.6646 7.60983 17.7349C7.53951 17.8052 7.5 17.9006 7.5 18V19.5C7.5 19.5995 7.53951 19.6949 7.60983 19.7652C7.68016 19.8355 7.77554 19.875 7.875 19.875H9.375C9.47446 19.875 9.56984 19.8355 9.64017 19.7652C9.71049 19.6949 9.75 19.5995 9.75 19.5V18C9.75 17.9006 9.71049 17.8052 9.64017 17.7349C9.56984 17.6646 9.47446 17.625 9.375 17.625ZM9 19.125H8.25V18.375H9V19.125ZM17.3066 11.6711L15.4316 11.3846L14.5895 9.59067C14.5592 9.52619 14.5112 9.47167 14.4511 9.43348C14.391 9.39528 14.3212 9.375 14.25 9.375C14.1788 9.375 14.109 9.39528 14.0489 9.43348C13.9888 9.47167 13.9408 9.52619 13.9105 9.59067L13.0687 11.3846L11.1938 11.6711C11.1256 11.6815 11.0615 11.7105 11.0088 11.7549C10.956 11.7993 10.9165 11.8574 10.8946 11.9228C10.8727 11.9883 10.8692 12.0584 10.8847 12.1257C10.9001 12.1929 10.9338 12.2546 10.982 12.3039L12.3498 13.7058L12.0264 15.6899C12.0152 15.7592 12.0237 15.8303 12.051 15.8951C12.0782 15.9598 12.1231 16.0156 12.1806 16.0561C12.238 16.0966 12.3056 16.1201 12.3758 16.124C12.4459 16.1279 12.5158 16.112 12.5773 16.0782L14.25 15.1536L15.9227 16.0782C15.9843 16.1122 16.0542 16.1282 16.1245 16.1244C16.1948 16.1206 16.2625 16.0971 16.3201 16.0565C16.3776 16.016 16.4226 15.9601 16.4498 15.8952C16.4771 15.8303 16.4855 15.7591 16.4742 15.6896L16.1508 13.7056L17.5186 12.3037C17.5669 12.2544 17.6005 12.1927 17.6159 12.1254C17.6314 12.0582 17.6279 11.988 17.606 11.9226C17.5842 11.8572 17.5446 11.7991 17.4919 11.7547C17.4391 11.7103 17.3751 11.6813 17.3069 11.6709L17.3066 11.6711ZM15.4816 13.3172C15.4406 13.3592 15.41 13.4103 15.3924 13.4663C15.3747 13.5222 15.3704 13.5816 15.3799 13.6395L15.6096 15.0481L14.4313 14.3966C14.3758 14.3659 14.3134 14.3498 14.2499 14.3498C14.1865 14.3498 14.124 14.3659 14.0685 14.3966L12.8903 15.0481L13.1199 13.6395C13.1294 13.5816 13.1251 13.5222 13.1074 13.4663C13.0898 13.4103 13.0592 13.3592 13.0182 13.3172L12.0281 12.3023L13.3797 12.096C13.4405 12.0867 13.4982 12.0626 13.5475 12.0257C13.5968 11.9889 13.6363 11.9404 13.6625 11.8847L14.25 10.6326L14.8376 11.8845C14.8637 11.9402 14.9032 11.9886 14.9525 12.0255C15.0019 12.0624 15.0595 12.0865 15.1204 12.0958L16.4719 12.3021L15.4816 13.3172ZM20.625 13.875H19.125C19.0255 13.875 18.9302 13.9146 18.8598 13.9849C18.7895 14.0552 18.75 14.1506 18.75 14.25V15.75C18.75 15.8495 18.7895 15.9449 18.8598 16.0152C18.9302 16.0855 19.0255 16.125 19.125 16.125H20.625C20.7245 16.125 20.8198 16.0855 20.8902 16.0152C20.9605 15.9449 21 15.8495 21 15.75V14.25C21 14.1506 20.9605 14.0552 20.8902 13.9849C20.8198 13.9146 20.7245 13.875 20.625 13.875ZM20.25 15.375H19.5V14.625H20.25V15.375ZM20.625 17.625H19.125C19.0255 17.625 18.9302 17.6646 18.8598 17.7349C18.7895 17.8052 18.75 17.9006 18.75 18V19.5C18.75 19.5995 18.7895 19.6949 18.8598 19.7652C18.9302 19.8355 19.0255 19.875 19.125 19.875H20.625C20.7245 19.875 20.8198 19.8355 20.8902 19.7652C20.9605 19.6949 21 19.5995 21 19.5V18C21 17.9006 20.9605 17.8052 20.8902 17.7349C20.8198 17.6646 20.7245 17.625 20.625 17.625ZM20.25 19.125H19.5V18.375H20.25V19.125ZM16.875 17.625H15.375C15.2755 17.625 15.1802 17.6646 15.1098 17.7349C15.0395 17.8052 15 17.9006 15 18V19.5C15 19.5995 15.0395 19.6949 15.1098 19.7652C15.1802 19.8355 15.2755 19.875 15.375 19.875H16.875C16.9745 19.875 17.0698 19.8355 17.1402 19.7652C17.2105 19.6949 17.25 19.5995 17.25 19.5V18C17.25 17.9006 17.2105 17.8052 17.1402 17.7349C17.0698 17.6646 16.9745 17.625 16.875 17.625ZM16.5 19.125H15.75V18.375H16.5V19.125Z" fill="#735F39"/>
</g>
<defs>
<filter id="filter0_d_527_2400" x="-3.25" y="0.75" width="30.5" height="30.5" filterUnits="userSpaceOnUse" color-interpolation-filters="sRGB">
<feFlood flood-opacity="0" result="BackgroundImageFix"/>
<feColorMatrix in="SourceAlpha" type="matrix" values="0 0 0 0 0 0 0 0 0 0 0 0 0 0 0 0 0 0 127 0" result="hardAlpha"/>
<feOffset dy="4"/>
<feGaussianBlur stdDeviation="2"/>
<feComposite in2="hardAlpha" operator="out"/>
<feColorMatrix type="matrix" values="0 0 0 0 0 0 0 0 0 0 0 0 0 0 0 0 0 0 0.25 0"/>
<feBlend mode="normal" in2="BackgroundImageFix" result="effect1_dropShadow_527_2400"/>
<feBlend mode="normal" in="SourceGraphic" in2="effect1_dropShadow_527_2400" result="shape"/>
</filter>
</defs>
</svg>
