<svg width="51" height="50" viewBox="0 0 51 50" fill="none" xmlns="http://www.w3.org/2000/svg">
<rect x="0.82373" width="50" height="50" rx="10" fill="#1ABCFE"/>
<path d="M37.5425 12.8125H34.73V12.3438C34.73 11.9708 34.5818 11.6131 34.3181 11.3494C34.0544 11.0857 33.6967 10.9375 33.3237 10.9375C32.9508 10.9375 32.5931 11.0857 32.3294 11.3494C32.0656 11.6131 31.9175 11.9708 31.9175 12.3438V12.8125H27.23V12.3438C27.23 11.9708 27.0818 11.6131 26.8181 11.3494C26.5544 11.0857 26.1967 10.9375 25.8237 10.9375C25.4508 10.9375 25.0931 11.0857 24.8294 11.3494C24.5656 11.6131 24.4175 11.9708 24.4175 12.3438V12.8125H19.73V12.3438C19.73 11.9708 19.5818 11.6131 19.3181 11.3494C19.0544 11.0857 18.6967 10.9375 18.3237 10.9375C17.9508 10.9375 17.5931 11.0857 17.3294 11.3494C17.0656 11.6131 16.9175 11.9708 16.9175 12.3438V12.8125H14.105C13.4836 12.8132 12.8879 13.0604 12.4485 13.4997C12.0091 13.9391 11.7619 14.5349 11.7612 15.1562V36.7188C11.7619 37.3401 12.0091 37.9359 12.4485 38.3753C12.8879 38.8146 13.4836 39.0618 14.105 39.0625H37.5425C38.1639 39.0618 38.7596 38.8146 39.199 38.3753C39.6384 37.9359 39.8855 37.3401 39.8862 36.7188V15.1562C39.8855 14.5349 39.6384 13.9391 39.199 13.4997C38.7596 13.0604 38.1639 12.8132 37.5425 12.8125ZM32.855 12.3438C32.855 12.2194 32.9044 12.1002 32.9923 12.0123C33.0802 11.9244 33.1994 11.875 33.3237 11.875C33.4481 11.875 33.5673 11.9244 33.6552 12.0123C33.7431 12.1002 33.7925 12.2194 33.7925 12.3438V15.1562C33.7925 15.2806 33.7431 15.3998 33.6552 15.4877C33.5673 15.5756 33.4481 15.625 33.3237 15.625C33.1994 15.625 33.0802 15.5756 32.9923 15.4877C32.9044 15.3998 32.855 15.2806 32.855 15.1562V12.3438ZM25.355 12.3438C25.355 12.2194 25.4044 12.1002 25.4923 12.0123C25.5802 11.9244 25.6994 11.875 25.8237 11.875C25.9481 11.875 26.0673 11.9244 26.1552 12.0123C26.2431 12.1002 26.2925 12.2194 26.2925 12.3438V15.1562C26.2925 15.2806 26.2431 15.3998 26.1552 15.4877C26.0673 15.5756 25.9481 15.625 25.8237 15.625C25.6994 15.625 25.5802 15.5756 25.4923 15.4877C25.4044 15.3998 25.355 15.2806 25.355 15.1562V12.3438ZM17.855 12.3438C17.855 12.2194 17.9044 12.1002 17.9923 12.0123C18.0802 11.9244 18.1994 11.875 18.3237 11.875C18.4481 11.875 18.5673 11.9244 18.6552 12.0123C18.7431 12.1002 18.7925 12.2194 18.7925 12.3438V15.1562C18.7925 15.2806 18.7431 15.3998 18.6552 15.4877C18.5673 15.5756 18.4481 15.625 18.3237 15.625C18.1994 15.625 18.0802 15.5756 17.9923 15.4877C17.9044 15.3998 17.855 15.2806 17.855 15.1562V12.3438ZM14.105 13.75H16.9175V15.1562C16.9175 15.5292 17.0656 15.8869 17.3294 16.1506C17.5931 16.4143 17.9508 16.5625 18.3237 16.5625C18.6967 16.5625 19.0544 16.4143 19.3181 16.1506C19.5818 15.8869 19.73 15.5292 19.73 15.1562V13.75H24.4175V15.1562C24.4175 15.5292 24.5656 15.8869 24.8294 16.1506C25.0931 16.4143 25.4508 16.5625 25.8237 16.5625C26.1967 16.5625 26.5544 16.4143 26.8181 16.1506C27.0818 15.8869 27.23 15.5292 27.23 15.1562V13.75H31.9175V15.1562C31.9175 15.5292 32.0656 15.8869 32.3294 16.1506C32.5931 16.4143 32.9508 16.5625 33.3237 16.5625C33.6967 16.5625 34.0544 16.4143 34.3181 16.1506C34.5818 15.8869 34.73 15.5292 34.73 15.1562V13.75H37.5425C37.9153 13.7504 38.2727 13.8987 38.5364 14.1624C38.8 14.426 38.9483 14.7834 38.9487 15.1562V18.4375H12.6987V15.1562C12.6992 14.7834 12.8475 14.426 13.1111 14.1624C13.3747 13.8987 13.7322 13.7504 14.105 13.75ZM37.5425 38.125H14.105C13.7322 38.1246 13.3747 37.9763 13.1111 37.7126C12.8475 37.449 12.6992 37.0916 12.6987 36.7188V19.375H38.9487V36.7188C38.9483 37.0916 38.8 37.449 38.5364 37.7126C38.2727 37.9763 37.9153 38.1246 37.5425 38.125Z" fill="white"/>
<path d="M36.605 22.6563H34.73C34.6057 22.6563 34.4864 22.7057 34.3985 22.7936C34.3106 22.8815 34.2612 23.0007 34.2612 23.1251V25.0001C34.2612 25.1244 34.3106 25.2436 34.3985 25.3315C34.4864 25.4194 34.6057 25.4688 34.73 25.4688H36.605C36.7293 25.4688 36.8485 25.4194 36.9364 25.3315C37.0243 25.2436 37.0737 25.1244 37.0737 25.0001V23.1251C37.0737 23.0007 37.0243 22.8815 36.9364 22.7936C36.8485 22.7057 36.7293 22.6563 36.605 22.6563ZM36.1362 24.5313H35.1987V23.5938H36.1362V24.5313ZM27.23 32.0313H25.355C25.2307 32.0313 25.1114 32.0807 25.0235 32.1686C24.9356 32.2565 24.8862 32.3757 24.8862 32.5001V34.3751C24.8862 34.4994 24.9356 34.6186 25.0235 34.7065C25.1114 34.7944 25.2307 34.8438 25.355 34.8438H27.23C27.3543 34.8438 27.4735 34.7944 27.5614 34.7065C27.6493 34.6186 27.6987 34.4994 27.6987 34.3751V32.5001C27.6987 32.3757 27.6493 32.2565 27.5614 32.1686C27.4735 32.0807 27.3543 32.0313 27.23 32.0313ZM26.7612 33.9063H25.8237V32.9688H26.7612V33.9063ZM22.5425 22.6563H20.6675C20.5432 22.6563 20.4239 22.7057 20.336 22.7936C20.2481 22.8815 20.1987 23.0007 20.1987 23.1251V25.0001C20.1987 25.1244 20.2481 25.2436 20.336 25.3315C20.4239 25.4194 20.5432 25.4688 20.6675 25.4688H22.5425C22.6668 25.4688 22.786 25.4194 22.8739 25.3315C22.9618 25.2436 23.0112 25.1244 23.0112 25.0001V23.1251C23.0112 23.0007 22.9618 22.8815 22.8739 22.7936C22.786 22.7057 22.6668 22.6563 22.5425 22.6563ZM22.0737 24.5313H21.1362V23.5938H22.0737V24.5313ZM17.855 27.3438H15.98C15.8557 27.3438 15.7364 27.3932 15.6485 27.4811C15.5606 27.569 15.5112 27.6882 15.5112 27.8126V29.6876C15.5112 29.8119 15.5606 29.9311 15.6485 30.019C15.7364 30.1069 15.8557 30.1563 15.98 30.1563H17.855C17.9793 30.1563 18.0985 30.1069 18.1864 30.019C18.2743 29.9311 18.3237 29.8119 18.3237 29.6876V27.8126C18.3237 27.6882 18.2743 27.569 18.1864 27.4811C18.0985 27.3932 17.9793 27.3438 17.855 27.3438ZM17.3862 29.2188H16.4487V28.2813H17.3862V29.2188ZM22.5425 27.3438H20.6675C20.5432 27.3438 20.4239 27.3932 20.336 27.4811C20.2481 27.569 20.1987 27.6882 20.1987 27.8126V29.6876C20.1987 29.8119 20.2481 29.9311 20.336 30.019C20.4239 30.1069 20.5432 30.1563 20.6675 30.1563H22.5425C22.6668 30.1563 22.786 30.1069 22.8739 30.019C22.9618 29.9311 23.0112 29.8119 23.0112 29.6876V27.8126C23.0112 27.6882 22.9618 27.569 22.8739 27.4811C22.786 27.3932 22.6668 27.3438 22.5425 27.3438ZM22.0737 29.2188H21.1362V28.2813H22.0737V29.2188ZM17.855 32.0313H15.98C15.8557 32.0313 15.7364 32.0807 15.6485 32.1686C15.5606 32.2565 15.5112 32.3757 15.5112 32.5001V34.3751C15.5112 34.4994 15.5606 34.6186 15.6485 34.7065C15.7364 34.7944 15.8557 34.8438 15.98 34.8438H17.855C17.9793 34.8438 18.0985 34.7944 18.1864 34.7065C18.2743 34.6186 18.3237 34.4994 18.3237 34.3751V32.5001C18.3237 32.3757 18.2743 32.2565 18.1864 32.1686C18.0985 32.0807 17.9793 32.0313 17.855 32.0313ZM17.3862 33.9063H16.4487V32.9688H17.3862V33.9063ZM22.5425 32.0313H20.6675C20.5432 32.0313 20.4239 32.0807 20.336 32.1686C20.2481 32.2565 20.1987 32.3757 20.1987 32.5001V34.3751C20.1987 34.4994 20.2481 34.6186 20.336 34.7065C20.4239 34.7944 20.5432 34.8438 20.6675 34.8438H22.5425C22.6668 34.8438 22.786 34.7944 22.8739 34.7065C22.9618 34.6186 23.0112 34.4994 23.0112 34.3751V32.5001C23.0112 32.3757 22.9618 32.2565 22.8739 32.1686C22.786 32.0807 22.6668 32.0313 22.5425 32.0313ZM22.0737 33.9063H21.1362V32.9688H22.0737V33.9063ZM32.457 24.5889L30.1133 24.2308L29.0606 21.9883C29.0227 21.9077 28.9627 21.8396 28.8876 21.7918C28.8124 21.7441 28.7253 21.7188 28.6362 21.7188C28.5472 21.7188 28.46 21.7441 28.3849 21.7918C28.3097 21.8396 28.2497 21.9077 28.2119 21.9883L27.1597 24.2308L24.8159 24.5889C24.7307 24.6019 24.6507 24.6381 24.5847 24.6936C24.5187 24.7491 24.4693 24.8218 24.4419 24.9036C24.4146 24.9853 24.4103 25.0731 24.4296 25.1571C24.4488 25.2411 24.4909 25.3182 24.5512 25.3799L26.261 27.1323L25.8567 29.6123C25.8427 29.699 25.8534 29.7879 25.8875 29.8688C25.9215 29.9498 25.9777 30.0195 26.0494 30.0701C26.1212 30.1207 26.2058 30.1501 26.2934 30.155C26.3811 30.1599 26.4684 30.14 26.5454 30.0977L28.6362 28.942L30.7271 30.0977C30.8041 30.1403 30.8915 30.1603 30.9793 30.1555C31.0672 30.1507 31.1519 30.1213 31.2238 30.0707C31.2957 30.02 31.352 29.9501 31.386 29.869C31.4201 29.7879 31.4307 29.6989 31.4165 29.612L31.0122 27.132L32.722 25.3796C32.7823 25.318 32.8244 25.2409 32.8437 25.1568C32.8629 25.0728 32.8586 24.985 32.8313 24.9033C32.8039 24.8215 32.7545 24.7489 32.6885 24.6933C32.6226 24.6378 32.5426 24.6016 32.4573 24.5886L32.457 24.5889ZM30.1757 26.6465C30.1245 26.6991 30.0863 26.7629 30.0642 26.8328C30.0421 26.9028 30.0368 26.977 30.0486 27.0494L30.3357 28.8102L28.8629 27.9957C28.7935 27.9574 28.7154 27.9372 28.6361 27.9372C28.5568 27.9372 28.4788 27.9574 28.4094 27.9957L26.9365 28.8102L27.2237 27.0494C27.2355 26.977 27.2301 26.9028 27.208 26.8328C27.1859 26.7629 27.1477 26.6991 27.0965 26.6465L25.8589 25.3779L27.5483 25.1201C27.6244 25.1084 27.6965 25.0782 27.7581 25.0322C27.8198 24.9861 27.8691 24.9255 27.9018 24.8559L28.6362 23.2908L29.3707 24.8556C29.4034 24.9252 29.4528 24.9858 29.5144 25.0319C29.5761 25.0779 29.6481 25.1081 29.7242 25.1198L31.4136 25.3776L30.1757 26.6465ZM36.605 27.3438H34.73C34.6057 27.3438 34.4864 27.3932 34.3985 27.4811C34.3106 27.569 34.2612 27.6882 34.2612 27.8126V29.6876C34.2612 29.8119 34.3106 29.9311 34.3985 30.019C34.4864 30.1069 34.6057 30.1563 34.73 30.1563H36.605C36.7293 30.1563 36.8485 30.1069 36.9364 30.019C37.0243 29.9311 37.0737 29.8119 37.0737 29.6876V27.8126C37.0737 27.6882 37.0243 27.569 36.9364 27.4811C36.8485 27.3932 36.7293 27.3438 36.605 27.3438ZM36.1362 29.2188H35.1987V28.2813H36.1362V29.2188ZM36.605 32.0313H34.73C34.6057 32.0313 34.4864 32.0807 34.3985 32.1686C34.3106 32.2565 34.2612 32.3757 34.2612 32.5001V34.3751C34.2612 34.4994 34.3106 34.6186 34.3985 34.7065C34.4864 34.7944 34.6057 34.8438 34.73 34.8438H36.605C36.7293 34.8438 36.8485 34.7944 36.9364 34.7065C37.0243 34.6186 37.0737 34.4994 37.0737 34.3751V32.5001C37.0737 32.3757 37.0243 32.2565 36.9364 32.1686C36.8485 32.0807 36.7293 32.0313 36.605 32.0313ZM36.1362 33.9063H35.1987V32.9688H36.1362V33.9063ZM31.9175 32.0313H30.0425C29.9182 32.0313 29.7989 32.0807 29.711 32.1686C29.6231 32.2565 29.5737 32.3757 29.5737 32.5001V34.3751C29.5737 34.4994 29.6231 34.6186 29.711 34.7065C29.7989 34.7944 29.9182 34.8438 30.0425 34.8438H31.9175C32.0418 34.8438 32.161 34.7944 32.2489 34.7065C32.3368 34.6186 32.3862 34.4994 32.3862 34.3751V32.5001C32.3862 32.3757 32.3368 32.2565 32.2489 32.1686C32.161 32.0807 32.0418 32.0313 31.9175 32.0313ZM31.4487 33.9063H30.5112V32.9688H31.4487V33.9063Z" fill="white"/>
</svg>
