<svg width="18" height="22" viewBox="0 0 18 22" fill="none" xmlns="http://www.w3.org/2000/svg">
<path d="M2.26574 13.6685C2.31922 13.7199 2.38671 13.7544 2.45974 13.7676C2.53276 13.7808 2.60806 13.7722 2.67618 13.7427C2.7443 13.7133 2.80219 13.6643 2.84259 13.6021C2.88299 13.5398 2.90409 13.467 2.90324 13.3928C2.81699 9.75833 3.91724 7.93808 4.16587 7.57508C5.73381 6.93792 7.41693 6.63312 9.10874 6.67995V8.13495C9.11016 8.26237 9.14286 8.38749 9.20397 8.49931C9.26508 8.61113 9.35273 8.70622 9.45921 8.77621C9.56569 8.84621 9.68773 8.88898 9.81462 8.90075C9.9415 8.91251 10.0693 8.89293 10.1869 8.8437L17.0025 5.91945C17.1677 5.84545 17.3093 5.72716 17.4114 5.57768C17.5136 5.4282 17.5724 5.25336 17.5813 5.07253C17.5902 4.8917 17.549 4.71192 17.462 4.5531C17.3751 4.39429 17.2459 4.26263 17.0887 4.1727L10.563 0.594078C10.4453 0.531645 10.3135 0.500588 10.1803 0.503902C10.0471 0.507216 9.91702 0.544789 9.80257 0.612999C9.68812 0.681208 9.59317 0.777753 9.52689 0.893326C9.4606 1.0089 9.42521 1.1396 9.42412 1.27283V2.38245C8.56166 2.35559 7.69988 2.45438 6.86587 2.6757C6.8182 2.68814 6.77344 2.70984 6.73416 2.73957C6.69488 2.7693 6.66184 2.80648 6.63692 2.84898C6.61201 2.89148 6.59571 2.93847 6.58895 2.98727C6.5822 3.03607 6.58512 3.08572 6.59755 3.13339C6.60999 3.18106 6.63169 3.22581 6.66142 3.2651C6.69115 3.30438 6.72833 3.33742 6.77083 3.36234C6.81333 3.38725 6.86032 3.40355 6.90912 3.41031C6.95792 3.41706 7.00757 3.41414 7.05524 3.4017C7.9388 3.16602 8.85598 3.0822 9.76762 3.15383C9.81927 3.15779 9.87118 3.15108 9.92013 3.13412C9.96907 3.11717 10.014 3.09032 10.0521 3.05525C10.0903 3.02018 10.1208 2.97765 10.1418 2.93029C10.1627 2.88293 10.1738 2.83175 10.1741 2.77995L10.2037 1.25258L16.7336 4.8327C16.768 4.85433 16.796 4.88484 16.8145 4.92101C16.8331 4.95718 16.8415 4.99768 16.839 5.03824C16.8364 5.07881 16.823 5.11794 16.8001 5.15152C16.7772 5.18511 16.7457 5.2119 16.7089 5.22908L9.85874 8.13495V6.3237C9.85878 6.23032 9.82398 6.14029 9.76114 6.07121C9.69831 6.00213 9.61196 5.95898 9.51899 5.9502C8.24249 5.76383 3.70387 6.12945 1.27649 8.5407C1.55587 7.36583 2.33024 6.21495 3.58724 5.10945C4.20776 4.62353 4.88807 4.21923 5.61149 3.90645C5.70029 3.86489 5.76928 3.79021 5.80368 3.6984C5.83808 3.60659 5.83516 3.50496 5.79555 3.41528C5.75593 3.3256 5.68276 3.255 5.59172 3.21861C5.50068 3.18221 5.39901 3.18292 5.30849 3.22058C0.135743 5.4507 -0.956257 10.721 2.26574 13.6685ZM3.00149 8.17695C2.46613 9.52136 2.18168 10.9525 2.16224 12.3995C1.58527 11.6258 1.24034 10.7039 1.16774 9.74145C1.69171 9.12556 2.31077 8.59739 3.00149 8.17695ZM15.7365 8.33333C15.6829 8.28218 15.6154 8.2479 15.5425 8.23472C15.4695 8.22154 15.3943 8.23005 15.3262 8.25919C15.258 8.28833 15.2 8.33683 15.1591 8.39866C15.1182 8.4605 15.0964 8.53297 15.0964 8.60708C15.1826 12.2416 14.0827 14.0618 13.8341 14.4248C12.266 15.0615 10.583 15.3662 8.89124 15.32V13.865C8.88983 13.7375 8.85713 13.6124 8.79602 13.5006C8.7349 13.3888 8.64725 13.2937 8.54078 13.2237C8.4343 13.1537 8.31225 13.1109 8.18537 13.0992C8.05848 13.0874 7.93065 13.107 7.81312 13.1562L0.997493 16.0808C0.832255 16.1548 0.690721 16.2731 0.588562 16.4226C0.486403 16.5721 0.427604 16.7469 0.418674 16.9278C0.409745 17.1086 0.451035 17.2884 0.537971 17.4472C0.624908 17.606 0.7541 17.7377 0.911243 17.8276L3.74624 19.3801C3.83325 19.4253 3.9345 19.4346 4.0283 19.406C4.1221 19.3775 4.20098 19.3133 4.24806 19.2273C4.29513 19.1413 4.30665 19.0403 4.28014 18.9459C4.25363 18.8515 4.19121 18.7713 4.10624 18.7223L1.26674 17.1672C1.23233 17.1456 1.20439 17.1151 1.18585 17.0789C1.16731 17.0427 1.15886 17.0022 1.16139 16.9617C1.16393 16.9211 1.17735 16.882 1.20024 16.8484C1.22314 16.8148 1.25466 16.788 1.29149 16.7708L8.14124 13.865V15.6762C8.1412 15.7696 8.176 15.8596 8.23884 15.9287C8.30168 15.9978 8.38802 16.0409 8.48099 16.0497C9.74212 16.2387 14.3029 15.8697 16.7235 13.4592C16.0972 15.9035 13.1321 19.0385 8.23199 18.8465C8.18043 18.8426 8.12863 18.8494 8.0798 18.8664C8.03097 18.8833 7.98614 18.9102 7.9481 18.9452C7.91006 18.9802 7.87962 19.0227 7.85866 19.0699C7.8377 19.1172 7.82666 19.1683 7.82624 19.22L7.79624 20.7473L5.60624 19.5473C5.51923 19.5021 5.41798 19.4928 5.32419 19.5214C5.23039 19.5499 5.1515 19.6141 5.10443 19.7001C5.05736 19.7861 5.04584 19.8871 5.07235 19.9815C5.09885 20.0759 5.16128 20.1561 5.24624 20.2051L7.43737 21.4058C7.55487 21.4698 7.687 21.502 7.82074 21.4994C7.95448 21.4967 8.08524 21.4593 8.20015 21.3909C8.31505 21.3224 8.41016 21.2252 8.4761 21.1088C8.54204 20.9924 8.57656 20.8608 8.57624 20.7271V19.6171C10.8697 19.6412 13.1023 18.8791 14.9025 17.4578C18.5505 14.3753 18.0986 10.6137 15.7365 8.33333ZM14.9985 13.8233C15.5339 12.4789 15.8183 11.0478 15.8377 9.60083C16.4147 10.3744 16.7596 11.2962 16.8322 12.2585C16.3083 12.8744 15.6892 13.4029 14.9985 13.8233Z" fill="#735F39"/>
</svg>
