<svg width="24" height="24" viewBox="0 0 24 24" fill="none" xmlns="http://www.w3.org/2000/svg">
<path d="M23.4287 5.56241L12.3714 0.0880862C12.254 0.0299691 12.1276 0 11.9999 0C11.8722 0 11.7458 0.0299691 11.6285 0.0880862L0.571147 5.56241C0.40155 5.64634 0.257047 5.78592 0.155581 5.9638C0.0541146 6.14169 0.000153183 6.35005 0.000396356 6.56302C0.000718729 6.776 0.0551754 6.98418 0.157019 7.16178C0.258863 7.33939 0.403619 7.4786 0.573351 7.56218L11.6307 13.0002C11.7475 13.0576 11.8731 13.0872 12.0001 13.0872C12.1258 13.0872 12.2517 13.0582 12.3692 13.0002L23.4265 7.56212C23.5963 7.47871 23.7412 7.33953 23.843 7.1619C23.9449 6.98426 23.9993 6.77599 23.9995 6.56297C23.9997 6.35001 23.9457 6.14166 23.8443 5.96379C23.7428 5.78591 23.5983 5.64635 23.4287 5.56241ZM12.0001 10.8177L3.33987 6.55864L12.0001 2.27092L20.6603 6.55864L12.0001 10.8177ZM23.9235 17.0092C23.7183 16.4571 23.1633 16.2015 22.6861 16.4386L12.0001 21.7291L1.31407 16.4386C0.835007 16.2007 0.281834 16.4574 0.076709 17.0092C-0.128744 17.561 0.0927403 18.2005 0.571147 18.4373L11.6285 23.912C11.7459 23.97 11.8723 24 12.0001 24C12.1279 24 12.2543 23.97 12.3717 23.912L23.429 18.4373C23.9072 18.2005 24.1286 17.561 23.9235 17.0092Z" fill="#735F39"/>
<path d="M23.9241 11.5734C23.7196 11.0213 23.1661 10.7642 22.6877 10.9995L11.9998 16.2559L1.3122 10.9995C0.833133 10.7639 0.279679 11.0213 0.0757724 11.5734C-0.128415 12.1263 0.094288 12.7651 0.573023 13.0004L11.6303 18.4384C11.7472 18.4958 11.8728 18.5253 11.9998 18.5253C12.1267 18.5253 12.2524 18.4958 12.3692 18.4384L23.4265 13.0003C23.9052 12.765 24.1279 12.1262 23.9241 11.5734Z" fill="black"/>
</svg>
