<svg width="50" height="50" viewBox="0 0 50 50" fill="none" xmlns="http://www.w3.org/2000/svg">
<rect width="50" height="50" rx="10" fill="#82E999"/>
<g clip-path="url(#clip0_355_2066)">
<rect x="10" y="10" width="30" height="30" rx="10" fill="#82E999"/>
<path d="M39.2859 16.953L25.4642 10.1101C25.3175 10.0375 25.1595 10 24.9999 10C24.8403 10 24.6823 10.0375 24.5356 10.1101L10.7139 16.953C10.5019 17.0579 10.3213 17.2324 10.1945 17.4548C10.0676 17.6771 10.0002 17.9376 10.0005 18.2038C10.0009 18.47 10.069 18.7302 10.1963 18.9522C10.3236 19.1742 10.5045 19.3482 10.7167 19.4527L24.5383 26.2503C24.6844 26.322 24.8414 26.359 25.0001 26.359C25.1572 26.359 25.3146 26.3227 25.4615 26.2503L39.2831 19.4527C39.4954 19.3484 39.6765 19.1744 39.8038 18.9524C39.9311 18.7303 39.9991 18.47 39.9993 18.2037C39.9996 17.9375 39.9321 17.6771 39.8053 17.4547C39.6785 17.2324 39.4979 17.0579 39.2859 16.953ZM25.0001 23.5222L14.1748 18.1983L25.0001 12.8387L35.8254 18.1983L25.0001 23.5222ZM39.9043 31.2615C39.6479 30.5713 38.9541 30.2518 38.3576 30.5482L25.0001 37.1613L11.6426 30.5482C11.0438 30.2509 10.3523 30.5718 10.0959 31.2615C9.83907 31.9513 10.1159 32.7506 10.7139 33.0466L24.5356 39.8899C24.6824 39.9626 24.8404 40 25.0001 40C25.1598 40 25.3179 39.9626 25.4646 39.8899L39.2863 33.0466C39.8839 32.7506 40.1607 31.9512 39.9043 31.2615Z" fill="white"/>
<path d="M39.9051 24.4667C39.6495 23.7766 38.9576 23.4552 38.3596 23.7494L24.9997 30.3199L11.6402 23.7494C11.0414 23.4548 10.3496 23.7766 10.0947 24.4667C9.83948 25.1578 10.1179 25.9563 10.7163 26.2504L24.5379 33.048C24.6839 33.1197 24.841 33.1567 24.9997 33.1567C25.1584 33.1567 25.3155 33.1197 25.4615 33.048L39.2831 26.2504C39.8815 25.9563 40.1599 25.1578 39.9051 24.4667Z" fill="white"/>
</g>
<defs>
<clipPath id="clip0_355_2066">
<rect x="10" y="10" width="30" height="30" rx="10" fill="white"/>
</clipPath>
</defs>
</svg>
