<svg width="24" height="25" viewBox="0 0 24 25" fill="none" xmlns="http://www.w3.org/2000/svg">
<g clip-path="url(#clip0_532_1257)">
<path fill-rule="evenodd" clip-rule="evenodd" d="M10.4429 0.5C11.1513 0.5 11.7255 1.07422 11.7255 1.7825C11.7246 2.48984 11.1504 3.06256 10.4429 3.06162H4.0701C3.08966 3.03852 2.55969 3.71834 2.56002 4.57123V20.4276C2.55969 21.2805 3.08971 21.9604 4.0701 21.9372H10.4429C11.1503 21.9363 11.7246 22.509 11.7255 23.2164C11.7255 23.9247 11.1513 24.4989 10.4429 24.4989C7.44969 24.4989 6.24299 24.492 3.61222 24.492C1.82066 24.492 -0.00146484 23.4021 -0.00146484 20.9493V4.04961C-0.00151172 1.59673 1.82061 0.506891 3.61222 0.506891C6.24299 0.506891 7.44969 0.5 10.4429 0.5Z" fill="#735F39"/>
<path fill-rule="evenodd" clip-rule="evenodd" d="M2.54981 12.4946V20.4197C2.54948 21.2723 3.07973 21.9518 4.06059 21.9287H10.4365C11.1443 21.9278 11.7188 22.5002 11.7197 23.2073C11.7197 23.9154 11.1452 24.4894 10.4365 24.4894C7.44183 24.4894 6.23461 24.4825 3.60253 24.4825C1.81003 24.4825 -0.0129395 23.393 -0.0129395 20.9411V12.4946H2.54981Z" fill="#735F39"/>
<path fill-rule="evenodd" clip-rule="evenodd" d="M15.4138 5.0271C14.9119 5.52899 14.9702 6.39514 15.5445 6.96932L19.278 10.7026C19.4693 10.8938 19.3338 11.2208 19.0634 11.2208H7.72926C6.91719 11.2208 6.26343 11.7922 6.26343 12.5019C6.26343 13.2116 6.91719 13.7829 7.72926 13.7829H19.0633C19.3338 13.7829 19.4692 14.1099 19.278 14.3012L15.5445 18.0344C14.9703 18.6086 14.9119 19.4748 15.4138 19.9766C16.0413 20.511 16.8571 20.3314 17.3563 19.8461L23.5153 13.6876C23.8419 13.3611 24.0014 12.9401 24.0014 12.5019C24.0014 12.0636 23.8419 11.6427 23.5153 11.3161L17.3563 5.15769C16.7649 4.64417 15.9565 4.50196 15.4138 5.0271Z" fill="#735F39"/>
<path fill-rule="evenodd" clip-rule="evenodd" d="M6.26352 12.4995L6.26343 12.5021C6.26343 13.2118 6.91719 13.7831 7.72926 13.7831H19.0633C19.3338 13.7831 19.4692 14.1101 19.278 14.3014L15.5445 18.0347C14.9703 18.6088 14.9119 19.475 15.4138 19.9768C16.0413 20.5112 16.8571 20.3316 17.3563 19.8463L23.5153 13.6878C23.8419 13.3613 24.0014 12.9403 24.0014 12.5021L24.0013 12.4995H6.26352Z" fill="#735F39"/>
</g>
<defs>
<clipPath id="clip0_532_1257">
<rect width="24" height="24" fill="white" transform="translate(0 0.5)"/>
</clipPath>
</defs>
</svg>
