<svg width="50" height="50" viewBox="0 0 50 50" fill="none" xmlns="http://www.w3.org/2000/svg">
<rect width="50" height="50" rx="10" fill="#DCA85A"/>
<path d="M24.9544 24.7205C26.9187 23.3595 28.2609 20.8253 28.2609 17.8947C28.2609 13.5416 25.3352 10 21.7391 10C18.143 10 15.2174 13.5416 15.2174 17.8947C15.2174 20.8253 16.5595 23.3595 18.5239 24.7205C13.6105 26.2821 10 31.3111 10 37.2716V39.2105C10 39.6463 10.2922 40 10.6522 40C11.0122 40 11.3044 39.6463 11.3044 39.2105V37.2716C11.3043 30.9416 15.9857 25.7895 21.7391 25.7895C27.4926 25.7895 32.1739 30.9416 32.1739 37.2716V39.2105C32.1739 39.6463 32.4661 40 32.8261 40C33.1861 40 33.4783 39.6463 33.4783 39.2105V37.2716C33.4782 31.3111 29.8678 26.2806 24.9544 24.7205ZM16.5218 17.8947C16.5218 14.4116 18.8618 11.579 21.7391 11.579C24.6165 11.579 26.9565 14.4116 26.9565 17.8947C26.9565 21.3779 24.6165 24.2105 21.7391 24.2105C18.8618 24.2105 16.5218 21.3779 16.5218 17.8947Z" fill="white"/>
<path d="M33.7365 24.7411C35.1504 23.609 36.087 21.6732 36.087 19.4737C36.087 15.9906 33.747 13.158 30.8696 13.158C30.5096 13.158 30.2174 13.5117 30.2174 13.9475C30.2174 14.3832 30.5096 14.737 30.8696 14.737C33.027 14.737 34.7826 16.8622 34.7826 19.4738C34.7826 22.0853 33.027 24.2106 30.8696 24.2106C30.5096 24.2106 30.2174 24.5643 30.2174 25.0001C30.2174 25.4359 30.5095 25.7895 30.8695 25.7895C35.1856 25.7895 38.6956 29.7163 38.6956 34.5447V36.0526C38.6956 36.4883 38.9878 36.8421 39.3478 36.8421C39.7078 36.8421 40 36.4883 40 36.0526V34.5447C40 29.9816 37.3704 26.1053 33.7365 24.7411Z" fill="white"/>
</svg>
