<svg width="24" height="24" viewBox="0 0 24 24" fill="none" xmlns="http://www.w3.org/2000/svg">
<path d="M23.8913 6.62365L23.8709 6.59295C23.8427 6.54211 23.8102 6.49318 23.7737 6.44656L19.9397 0.674065C19.6635 0.258282 19.1493 0 18.5978 0H5.40285C4.85043 0 4.33584 0.258892 4.05977 0.6758L0.163257 6.56267C0.129242 6.61454 0.102943 6.66997 0.0849925 6.72762C0.0286704 6.86004 -0.000110036 7.00013 3.16138e-07 7.14134V22.346C3.16138e-07 23.258 0.852023 24 1.89927 24H22.1006C23.1479 24 23.9999 23.258 23.9999 22.346V7.08561C23.9999 7.06522 23.9992 7.04497 23.998 7.02481C24.0094 6.8848 23.9723 6.74503 23.8913 6.62365ZM12.8353 1.40677H18.5602L21.5762 5.94771H12.8353V1.40677ZM5.44048 1.40677H11.2199V5.94771H2.4348L5.44048 1.40677ZM22.3845 22.3461C22.3844 22.4116 22.3545 22.4744 22.3013 22.5208C22.2481 22.5671 22.1759 22.5932 22.1006 22.5933H1.89927C1.82401 22.5932 1.75185 22.5671 1.69863 22.5208C1.64541 22.4744 1.61548 22.4116 1.61539 22.3461V7.35448H22.3845V22.3461Z" fill="#735F39"/>
<path d="M15.6667 12.6576C15.3513 12.383 14.8399 12.383 14.5245 12.6576L10.918 15.7984L9.53117 14.5907C9.2158 14.316 8.70434 14.316 8.38891 14.5907C8.07349 14.8653 8.07349 15.3107 8.38891 15.5854L10.3469 17.2905C10.4218 17.3559 10.5108 17.4078 10.6089 17.4431C10.7069 17.4785 10.8119 17.4966 10.918 17.4965C11.1247 17.4965 11.3315 17.4278 11.4891 17.2905L15.6667 13.6524C15.9821 13.3777 15.9821 12.9323 15.6667 12.6576Z" fill="black"/>
</svg>
