<svg width="24" height="24" viewBox="0 0 24 24" fill="none" xmlns="http://www.w3.org/2000/svg">
<path d="M5.37178 23.0459C5.1088 23.0459 4.8477 22.9638 4.62485 22.8027C4.42217 22.656 4.26709 22.4529 4.17889 22.2188C4.0907 21.9846 4.07328 21.7297 4.12881 21.4858L5.67282 14.6845L0.436559 10.0926C0.248237 9.92823 0.112386 9.71217 0.0459084 9.47124C-0.020569 9.23031 -0.0147384 8.97515 0.0626749 8.7375C0.139613 8.49999 0.284569 8.29028 0.479572 8.13437C0.674575 7.97847 0.911047 7.88322 1.15967 7.86045L8.08783 7.23142L10.827 0.82124C11.0289 0.350275 11.4889 0.0461426 12 0.0461426C12.5111 0.0461426 12.971 0.350275 13.173 0.820162L15.9121 7.23142L22.8392 7.86036C23.3493 7.9063 23.7793 8.25149 23.9373 8.73746C24.0953 9.22347 23.9492 9.7565 23.5643 10.0925L18.3281 14.6836L19.8721 21.4847C19.9852 21.9848 19.7911 22.5019 19.3762 22.8018C18.9622 23.1017 18.4101 23.1248 17.9742 22.8628L12 19.2927L6.02584 22.8648C5.82385 22.9847 5.5988 23.0459 5.37178 23.0459ZM12 17.7547C12.227 17.7547 12.4519 17.8157 12.654 17.9356L18.2922 21.3078L16.835 14.8885C16.784 14.6641 16.7946 14.4302 16.8658 14.2113C16.9369 13.9925 17.0659 13.797 17.2391 13.6455L22.1833 9.30949L15.642 8.71552C15.4118 8.69491 15.1916 8.61207 15.0049 8.47588C14.8181 8.33969 14.672 8.15528 14.582 7.94239L12 1.89321L9.41485 7.94328C9.23283 8.37431 8.82777 8.67042 8.35793 8.71346L1.81575 9.30747L6.75978 13.6435C7.11388 13.9536 7.26876 14.4296 7.16386 14.8876L5.70779 21.3067L11.3459 17.9356C11.5479 17.8157 11.773 17.7547 12 17.7547ZM8.03491 7.35536C8.03491 7.35536 8.03491 7.35644 8.03383 7.35738L8.03491 7.35536ZM15.9631 7.35241L15.9642 7.35442C15.9642 7.35334 15.9642 7.35334 15.963 7.35241H15.9631Z" fill="#735F39"/>
</svg>
