<svg width="20" height="23" viewBox="0 0 20 23" fill="none" xmlns="http://www.w3.org/2000/svg">
<path d="M17.8835 2.4325H14.6405V1.9695C14.6405 0.8835 13.757 0 12.671 0H6.7535C5.6675 0 4.784 0.8835 4.784 1.9695V2.4325H1.541C1.13249 2.43296 0.740834 2.59543 0.451948 2.88427C0.163062 3.17311 0.000529329 3.56474 0 3.97325V4.70375C0 5.499 0.60575 6.15525 1.37975 6.23625L2.9665 20.1602C3.11775 21.49 4.2415 22.4928 5.58 22.4928H13.8442C15.1827 22.4928 16.3065 21.49 16.4578 20.1602L18.0445 6.23625C18.423 6.19598 18.7733 6.01722 19.028 5.73433C19.2827 5.45144 19.4238 5.0844 19.4242 4.70375V3.97325C19.4237 3.56474 19.2612 3.17311 18.9723 2.88427C18.6834 2.59543 18.292 2.43296 17.8835 2.4325ZM5.78425 1.9695C5.78451 1.71245 5.88674 1.46601 6.0685 1.28425C6.25026 1.10249 6.4967 1.00026 6.75375 1H12.6712C12.9283 1.00026 13.1747 1.10249 13.3565 1.28425C13.5383 1.46601 13.6405 1.71245 13.6407 1.9695V2.4325H5.78425V1.9695ZM15.4645 20.047C15.4194 20.4449 15.2293 20.8123 14.9305 21.079C14.6318 21.3457 14.2452 21.493 13.8447 21.4928H5.5805C5.18002 21.493 4.79349 21.3457 4.49472 21.079C4.19594 20.8123 4.00586 20.4449 3.96075 20.047L2.388 6.24475H17.0375L15.4645 20.047ZM18.4247 4.70375C18.4246 4.84717 18.3675 4.98466 18.2661 5.08608C18.1647 5.18749 18.0272 5.24455 17.8837 5.24475H1.541C1.39758 5.24455 1.26009 5.18749 1.15867 5.08608C1.05726 4.98466 1.0002 4.84717 1 4.70375V3.97325C1 3.67525 1.24275 3.4325 1.541 3.4325H17.8832C18.1815 3.4325 18.4242 3.67525 18.4242 3.97325V4.70375H18.4247Z" fill="#735F39"/>
<path d="M9.71225 18.7866C9.84486 18.7866 9.97204 18.7339 10.0658 18.6401C10.1596 18.5463 10.2123 18.4192 10.2123 18.2866V9.45105C10.2123 9.31844 10.1596 9.19126 10.0658 9.0975C9.97204 9.00373 9.84486 8.95105 9.71225 8.95105C9.57964 8.95105 9.45247 9.00373 9.3587 9.0975C9.26493 9.19126 9.21225 9.31844 9.21225 9.45105V18.2866C9.21225 18.4192 9.26493 18.5463 9.3587 18.6401C9.45247 18.7339 9.57964 18.7866 9.71225 18.7866ZM12.7013 18.7633C12.7666 18.7697 12.8326 18.7632 12.8954 18.7441C12.9582 18.725 13.0166 18.6937 13.0673 18.652C13.118 18.6103 13.16 18.559 13.1909 18.5011C13.2218 18.4431 13.2409 18.3797 13.2473 18.3143L14.1038 9.5203C14.1166 9.38832 14.0766 9.25663 13.9924 9.15419C13.9082 9.05174 13.7867 8.98695 13.6548 8.97405C13.5893 8.96722 13.5232 8.97346 13.4602 8.9924C13.3972 9.01133 13.3386 9.0426 13.2878 9.08437C13.237 9.12614 13.1949 9.17759 13.1642 9.23573C13.1334 9.29387 13.1145 9.35754 13.1085 9.42305L12.252 18.2171C12.2391 18.349 12.2792 18.4807 12.3634 18.5832C12.4476 18.6856 12.5693 18.7504 12.7013 18.7633ZM6.67425 18.7658C6.74406 18.7659 6.8131 18.7513 6.87693 18.723C6.94077 18.6948 6.99798 18.6535 7.04489 18.6018C7.09181 18.5501 7.12737 18.4892 7.14931 18.4229C7.17124 18.3566 7.17906 18.2865 7.17225 18.2171L6.31575 9.42305C6.30975 9.35755 6.29081 9.2939 6.26002 9.23577C6.22924 9.17765 6.18722 9.12621 6.13641 9.08445C6.0856 9.04268 6.02701 9.01142 5.96402 8.99247C5.90104 8.97352 5.83492 8.96726 5.7695 8.97405C5.63752 8.98695 5.51608 9.05174 5.43187 9.15419C5.34767 9.25663 5.30761 9.38832 5.3205 9.5203L6.177 18.3143C6.18904 18.4378 6.24658 18.5524 6.33844 18.6359C6.43029 18.7193 6.55015 18.7656 6.67425 18.7658Z" fill="#735F39"/>
</svg>
