<svg width="24" height="24" viewBox="0 0 24 24" fill="none" xmlns="http://www.w3.org/2000/svg">
<path d="M11.9635 11.7764C13.535 10.6876 14.6087 8.66024 14.6087 6.3158C14.6087 2.83328 12.2682 0 9.3913 0C6.51443 0 4.17389 2.83328 4.17389 6.3158C4.17389 8.66024 5.24763 10.6876 6.81911 11.7764C2.88836 13.0257 0 17.0489 0 21.8173V23.3684C0 23.717 0.233755 24 0.521755 24C0.809755 24 1.04351 23.717 1.04351 23.3684V21.8173C1.04346 16.7533 4.78854 12.6316 9.3913 12.6316C13.9941 12.6316 17.7391 16.7533 17.7391 21.8173V23.3684C17.7391 23.717 17.9729 24 18.2609 24C18.5489 24 18.7826 23.717 18.7826 23.3684V21.8173C18.7826 17.0489 15.8942 13.0245 11.9635 11.7764ZM5.2174 6.3158C5.2174 3.5293 7.0894 1.2632 9.3913 1.2632C11.6932 1.2632 13.5652 3.5293 13.5652 6.3158C13.5652 9.1023 11.6932 11.3684 9.3913 11.3684C7.0894 11.3684 5.2174 9.10236 5.2174 6.3158Z" fill="#735F39"/>
<path d="M18.9911 11.7929C20.1222 10.8872 20.8714 9.33853 20.8714 7.57897C20.8714 4.79247 18.9994 2.52637 16.6975 2.52637C16.4095 2.52637 16.1758 2.80933 16.1758 3.15796C16.1758 3.5066 16.4095 3.78956 16.6975 3.78956C18.4234 3.78956 19.828 5.48979 19.828 7.57903C19.828 9.66827 18.4234 11.3685 16.6975 11.3685C16.4095 11.3685 16.1758 11.6515 16.1758 12.0001C16.1758 12.3487 16.4095 12.6316 16.6975 12.6316C20.1504 12.6316 22.9584 15.773 22.9584 19.6358V20.842C22.9584 21.1907 23.1921 21.4736 23.4801 21.4736C23.7681 21.4736 24.0019 21.1907 24.0019 20.842V19.6358C24.0019 15.9853 21.8982 12.8842 18.9911 11.7929Z" fill="black"/>
</svg>
