<svg width="50" height="50" viewBox="0 0 50 50" fill="none" xmlns="http://www.w3.org/2000/svg">
<rect width="50" height="50" rx="10" fill="#F07A77"/>
<path d="M39.8642 18.2796L39.8387 18.2412C39.8034 18.1776 39.7628 18.1165 39.7171 18.0582L34.9246 10.8426C34.5793 10.3229 33.9366 10 33.2472 10H16.7536C16.063 10 15.4198 10.3236 15.0747 10.8447L10.2041 18.2033C10.1616 18.2682 10.1287 18.3375 10.1062 18.4095C10.0358 18.575 9.99986 18.7502 10 18.9267V37.9325C10 39.0725 11.065 40 12.3741 40H37.6258C38.9349 40 39.9999 39.0725 39.9999 37.9325V18.857C39.9999 18.8315 39.999 18.8062 39.9975 18.781C40.0118 18.606 39.9653 18.4313 39.8642 18.2796ZM26.0441 11.7585H33.2002L36.9702 17.4346H26.0441V11.7585ZM16.8006 11.7585H24.0249V17.4346H13.0435L16.8006 11.7585ZM37.9806 37.9326C37.9805 38.0145 37.9431 38.093 37.8766 38.151C37.8101 38.2089 37.7199 38.2415 37.6258 38.2416H12.3741C12.28 38.2415 12.1898 38.2089 12.1233 38.151C12.0568 38.093 12.0193 38.0145 12.0192 37.9326V19.1931H37.9806V37.9326Z" fill="white"/>
<path d="M29.583 25.8219C29.1888 25.4786 28.5495 25.4786 28.1552 25.8219L23.6471 29.7478L21.9136 28.2382C21.5194 27.8949 20.8801 27.8949 20.4858 28.2382C20.0915 28.5815 20.0915 29.1383 20.4858 29.4816L22.9333 31.6129C23.0269 31.6947 23.1382 31.7596 23.2607 31.8038C23.3832 31.848 23.5146 31.8707 23.6472 31.8705C23.9055 31.8705 24.164 31.7846 24.3611 31.6129L29.583 27.0654C29.9773 26.722 29.9773 26.1653 29.583 25.8219Z" fill="white"/>
</svg>
